<svg width="244" height="266" viewBox="0 0 244 266" fill="none" xmlns="http://www.w3.org/2000/svg">
<path d="M149.406 37.3622C151.86 33.7318 154.277 30.0698 156.546 26.329C159.55 21.2662 164.083 17.2872 169.492 14.9648L172.954 13.5095C175.513 12.8685 177.157 13.4202 179.259 14.597C193.97 27.4323 199.261 46.6932 203.91 64.7561C209.075 93.6999 212.474 123.232 210.215 152.638C207.861 178.146 205.865 204.279 195.562 228.084C191.443 237.993 186.079 249.347 174.893 252.615C163.481 253.597 156.772 242.249 152.653 233.286C150.079 227.832 148.419 221.254 146.112 214.897C131.354 160.661 131.354 102.642 146.853 48.6266C151.991 38.9436 138.284 28.7721 129.72 34.5304C128.557 35.1241 127.454 35.8278 126.426 36.6319C121.287 40.6144 117.557 46.089 115.067 52.1204C108.731 67.4041 106.177 84.0484 103.718 100.351C100.224 134.644 102.048 169.671 110.942 203.049C111.855 206.396 112.998 209.675 114.363 212.864C114.752 213.834 115.191 214.785 115.676 215.711C116.238 216.946 117.447 218.864 118.382 220.508C119.103 221.77 119.986 222.933 121.009 223.965C122.427 225.394 123.825 226.844 125.328 228.168C127.813 230.359 131.422 233.039 134.375 231.531C154.802 221.097 150.184 228.604 148.923 231.032C142.97 243.494 135.263 262.24 120.074 265.739C109.219 265.707 102.153 255.405 97.6395 246.673C79.7185 208.214 76.5766 164.943 77.2019 123.116C78.0845 86.7489 82.398 49.2676 98.9478 16.3676M98.9478 16.3676C103.813 6.94735 115.293 -5.2207 126.415 2.39221C138.841 10.0419 142.471 25.4148 149.406 37.3517M176.049 70.0573C175.313 71.3077 174.569 72.5529 173.816 73.7928C172.659 75.66 171.749 77.6699 171.11 79.7718C161.364 112.887 160.843 148.035 169.602 181.424C170.886 186.286 172.881 190.932 175.523 195.211C175.986 195.957 176.443 196.708 176.9 197.454C177.648 198.665 178.72 199.643 179.995 200.276C181.27 200.909 182.697 201.173 184.114 201.037C185.007 200.96 185.895 200.866 186.777 200.753C188.433 200.563 190.023 199.997 191.425 199.097C192.828 198.197 194.006 196.988 194.868 195.563C204.851 178.818 205.749 158.155 206.621 139.088C206.784 116.623 205.807 93.3373 196.481 72.5056C194.07 68.6965 190.807 66.2534 186.993 65.292C184.899 64.8056 182.704 65.0064 180.733 65.8647C178.762 66.7229 177.119 68.193 176.049 70.0573Z" fill="#1852DF"/>
<path d="M17.9641 69.2849C32.4228 44.6914 55.5768 26.4708 81.0109 14.2397C47.1915 47.1397 33.0007 96.4949 36.006 142.803C38.1075 182.181 52.3614 222.242 80.9111 250.208C51.6836 236.664 26.0446 214.393 12.3056 184.829C-5.73632 148.692 -4.01304 103.362 17.9641 69.2849Z" fill="#1852DF"/>
<path d="M233.316 97.488H233.4C234.509 97.4823 235.592 97.8148 236.506 98.4409C237.421 99.067 238.122 99.9571 238.518 100.992C245.554 120.49 245.632 141.821 238.738 161.37C238.338 162.469 237.595 163.409 236.618 164.052C235.641 164.694 234.484 165.005 233.316 164.938L232.791 164.906C231.701 164.855 230.651 164.477 229.779 163.821C228.907 163.165 228.252 162.261 227.9 161.228C221.553 141.883 221.29 120.248 228.173 101.034C228.562 99.9866 229.265 99.0842 230.185 98.4497C231.105 97.8152 232.199 97.4794 233.316 97.488Z" fill="#1852DF"/>
</svg>
