<svg width="33" height="33" viewBox="0 0 33 33" fill="none" xmlns="http://www.w3.org/2000/svg">
<path d="M19.8061 4.74118C20.1071 4.29581 20.4036 3.84657 20.6821 3.38767C21.0505 2.76658 21.6066 2.27845 22.2702 1.99355L22.6949 1.81501C23.0088 1.73638 23.2105 1.80405 23.4684 1.94843C25.273 3.52302 25.9221 5.88587 26.4925 8.10177C27.1261 11.6525 27.5431 15.2754 27.2659 18.8828C26.9772 22.012 26.7323 25.2179 25.4683 28.1383C24.963 29.3539 24.305 30.7467 22.9328 31.1476C21.5328 31.2682 20.7098 29.876 20.2045 28.7764C19.8886 28.1074 19.685 27.3004 19.402 26.5205C17.5915 19.867 17.5915 12.7495 19.4929 6.12306C20.1232 4.93519 18.4417 3.68737 17.3911 4.39378C17.2484 4.46661 17.1131 4.55295 16.987 4.65159C16.3566 5.14015 15.899 5.81175 15.5935 6.55167C14.8162 8.42661 14.5029 10.4685 14.2013 12.4685C13.7727 16.6753 13.9963 20.9724 15.0875 25.0671C15.1995 25.4776 15.3397 25.8799 15.5071 26.2711C15.5549 26.3902 15.6087 26.5068 15.6682 26.6204C15.7372 26.7719 15.8855 27.0072 16.0002 27.2089C16.0886 27.3637 16.1969 27.5063 16.3224 27.633C16.4965 27.8083 16.6679 27.9862 16.8522 28.1486C17.1571 28.4174 17.5999 28.7461 17.9621 28.5611C20.4681 27.2811 19.9015 28.2021 19.7468 28.4999C19.0166 30.0287 18.0711 32.3284 16.2077 32.7577C14.8761 32.7538 14.0092 31.4899 13.4556 30.4187C11.2571 25.7007 10.8716 20.3923 10.9483 15.2612C11.0566 10.7998 11.5858 6.20169 13.6161 2.16564M13.6161 2.16564C14.2129 1.00999 15.6212 -0.482743 16.9857 0.451183C18.51 1.38962 18.9554 3.27552 19.8061 4.73989M23.0746 8.7521C22.9843 8.9055 22.893 9.05825 22.8006 9.21036C22.6586 9.43943 22.5471 9.68599 22.4687 9.94384C21.2731 14.0063 21.2092 18.3181 22.2837 22.4142C22.4412 23.0107 22.6859 23.5806 23.0101 24.1055C23.0668 24.197 23.1229 24.2892 23.179 24.3807C23.2707 24.5293 23.4022 24.6492 23.5586 24.7269C23.715 24.8046 23.8901 24.8369 24.0639 24.8203C24.1735 24.8108 24.2824 24.7992 24.3907 24.7855C24.5938 24.7621 24.7888 24.6926 24.9609 24.5822C25.1329 24.4719 25.2774 24.3235 25.3833 24.1487C26.6079 22.0945 26.7181 19.5596 26.8251 17.2206C26.8451 14.4646 26.7252 11.608 25.5811 9.05245C25.2853 8.58517 24.885 8.28546 24.4171 8.16751C24.1602 8.10785 23.8909 8.13248 23.6491 8.23777C23.4073 8.34305 23.2059 8.5234 23.0746 8.7521Z" fill="#042233"/>
<path d="M3.68131 8.6573C5.45506 5.64024 8.29551 3.40501 11.4157 1.90454C7.26683 5.9406 5.52596 11.9953 5.89463 17.6762C6.15244 22.507 7.90105 27.4215 11.4034 30.8524C7.81791 29.1908 4.6726 26.4586 2.98715 22.8318C0.773827 18.3987 0.985234 12.8377 3.68131 8.6573Z" fill="#042233"/>
<path d="M30.1 12.1172H30.1103C30.2462 12.1165 30.3792 12.1573 30.4913 12.2341C30.6035 12.3109 30.6896 12.4201 30.7381 12.5471C31.6013 14.939 31.6109 17.5559 30.7651 19.9541C30.716 20.0888 30.6248 20.2042 30.505 20.283C30.3852 20.3618 30.2432 20.3999 30.1 20.3917L30.0355 20.3878C29.9018 20.3815 29.773 20.3351 29.666 20.2547C29.559 20.1742 29.4787 20.0634 29.4355 19.9367C28.6569 17.5635 28.6246 14.9093 29.469 12.5523C29.5168 12.4237 29.603 12.313 29.7158 12.2352C29.8287 12.1574 29.9629 12.1162 30.1 12.1172Z" fill="#042233"/>
</svg>
