<svg width="25" height="24" viewBox="0 0 25 24" fill="none" xmlns="http://www.w3.org/2000/svg">
<g clip-path="url(#clip0_2_4475)">
<path fill-rule="evenodd" clip-rule="evenodd" d="M12.4642 0.5C5.84833 0.5 0.5 5.77083 0.5 12.2916C0.5 17.5039 3.92686 21.9161 8.68082 23.4777C9.27518 23.5951 9.4929 23.224 9.4929 22.9118C9.4929 22.6385 9.47331 21.7014 9.47331 20.7251C6.14514 21.4281 5.45208 19.3195 5.45208 19.3195C4.91722 17.9529 4.12473 17.6017 4.12473 17.6017C3.03543 16.8794 4.20408 16.8794 4.20408 16.8794C5.41241 16.9575 6.04645 18.0897 6.04645 18.0897C7.11592 19.8856 8.83926 19.3782 9.53257 19.0658C9.63151 18.3044 9.94865 17.7773 10.2854 17.4845C7.63094 17.2112 4.83812 16.1961 4.83812 11.6667C4.83812 10.3783 5.31322 9.32409 6.06604 8.50424C5.94727 8.21147 5.53118 7.00085 6.18506 5.38055C6.18506 5.38055 7.19527 5.06814 9.47306 6.59093C10.4483 6.33282 11.454 6.20151 12.4642 6.20041C13.4744 6.20041 14.5042 6.33721 15.4552 6.59093C17.7332 5.06814 18.7434 5.38055 18.7434 5.38055C19.3973 7.00085 18.981 8.21147 18.8622 8.50424C19.6349 9.32409 20.0904 10.3783 20.0904 11.6667C20.0904 16.1961 17.2976 17.1915 14.6233 17.4845C15.0592 17.8554 15.4353 18.5581 15.4353 19.671C15.4353 21.2522 15.4158 22.5213 15.4158 22.9116C15.4158 23.224 15.6337 23.5951 16.2278 23.478C20.9818 21.9159 24.4087 17.5039 24.4087 12.2916C24.4282 5.77083 19.0603 0.5 12.4642 0.5Z" fill="#377DFF"/>
</g>
<defs>
<clipPath id="clip0_2_4475">
<rect width="24" height="23" fill="white" transform="translate(0.5 0.5)"/>
</clipPath>
</defs>
</svg>
