<svg width="26" height="34" viewBox="0 0 26 34" fill="none" xmlns="http://www.w3.org/2000/svg">
<path fill-rule="evenodd" clip-rule="evenodd" d="M0.875 8C0.875 4.06497 4.06497 0.875 8 0.875H14C17.935 0.875 21.125 4.06497 21.125 8V18.5C21.125 19.1213 20.6213 19.625 20 19.625C19.3787 19.625 18.875 19.1213 18.875 18.5V8C18.875 5.30761 16.6924 3.125 14 3.125H8C5.30761 3.125 3.125 5.30761 3.125 8V26C3.125 28.6924 5.30761 30.875 8 30.875H20C20.6213 30.875 21.125 31.3787 21.125 32C21.125 32.6213 20.6213 33.125 20 33.125H8C4.06497 33.125 0.875 29.935 0.875 26V8ZM23.75 27.5H13.25C12.0074 27.5 11 26.4926 11 25.25C11 24.0074 12.0074 23 13.25 23H23.75C24.9926 23 26 24.0074 26 25.25C26 26.4926 24.9926 27.5 23.75 27.5ZM11 8.75C11.6213 8.75 12.125 8.24632 12.125 7.625C12.125 7.00368 11.6213 6.5 11 6.5C10.3787 6.5 9.875 7.00368 9.875 7.625C9.875 8.24632 10.3787 8.75 11 8.75ZM8.00073 7.62507C8.00073 8.24639 7.49705 8.75007 6.87573 8.75007C6.25441 8.75007 5.75073 8.24639 5.75073 7.62507C5.75073 7.00375 6.25441 6.50007 6.87573 6.50007C7.49705 6.50007 8.00073 7.00375 8.00073 7.62507ZM15.1243 8.75007C15.7456 8.75007 16.2493 8.24639 16.2493 7.62507C16.2493 7.00375 15.7456 6.50007 15.1243 6.50007C14.5029 6.50007 13.9993 7.00375 13.9993 7.62507C13.9993 8.24639 14.5029 8.75007 15.1243 8.75007ZM12.125 12.125C12.125 12.7463 11.6213 13.25 11 13.25C10.3787 13.25 9.875 12.7463 9.875 12.125C9.875 11.5037 10.3787 11 11 11C11.6213 11 12.125 11.5037 12.125 12.125ZM11 17.75C11.6213 17.75 12.125 17.2463 12.125 16.625C12.125 16.0037 11.6213 15.5 11 15.5C10.3787 15.5 9.875 16.0037 9.875 16.625C9.875 17.2463 10.3787 17.75 11 17.75ZM8.00073 12.1251C8.00073 12.7464 7.49705 13.2501 6.87573 13.2501C6.25441 13.2501 5.75073 12.7464 5.75073 12.1251C5.75073 11.5037 6.25441 11.0001 6.87573 11.0001C7.49705 11.0001 8.00073 11.5037 8.00073 12.1251ZM6.87573 17.7501C7.49705 17.7501 8.00073 17.2464 8.00073 16.6251C8.00073 16.0037 7.49705 15.5001 6.87573 15.5001C6.25441 15.5001 5.75073 16.0037 5.75073 16.6251C5.75073 17.2464 6.25441 17.7501 6.87573 17.7501ZM16.2493 12.1251C16.2493 12.7464 15.7456 13.2501 15.1243 13.2501C14.5029 13.2501 13.9993 12.7464 13.9993 12.1251C13.9993 11.5037 14.5029 11.0001 15.1243 11.0001C15.7456 11.0001 16.2493 11.5037 16.2493 12.1251ZM15.1243 17.7501C15.7456 17.7501 16.2493 17.2464 16.2493 16.6251C16.2493 16.0037 15.7456 15.5001 15.1243 15.5001C14.5029 15.5001 13.9993 16.0037 13.9993 16.6251C13.9993 17.2464 14.5029 17.7501 15.1243 17.7501Z" fill="#323B4B"/>
</svg>
