<svg width="21" height="20" viewBox="0 0 21 20" fill="none" xmlns="http://www.w3.org/2000/svg">
<path d="M1.70258 6.70024H19.2974M1.38539 13.1513C0.871536 11.0819 0.871536 8.91815 1.38539 6.84875C2.05805 4.13983 4.20602 2.04534 6.93056 1.44162L7.38443 1.34105C9.4366 0.886317 11.5634 0.886317 13.6156 1.34105L14.0694 1.44162C16.794 2.04534 18.942 4.13984 19.6146 6.84875C20.1285 8.91815 20.1285 11.0819 19.6146 13.1512C18.942 15.8602 16.794 17.9547 14.0694 18.5584L13.6156 18.659C11.5634 19.1137 9.4366 19.1137 7.38443 18.659L6.93056 18.5584C4.20601 17.9547 2.05805 15.8602 1.38539 13.1513Z" stroke="#363853" stroke-width="1.5"/>
<path d="M5.5 10L9.5 10" stroke="#363853" stroke-width="1.5" stroke-linecap="round"/>
</svg>
